<?xml version="1.0" encoding="utf-8"?>
<!-- Generator: Adobe Illustrator 27.5.0, SVG Export Plug-In . SVG Version: 6.00 Build 0)  -->
<svg version="1.1" id="Layer_1" xmlns="http://www.w3.org/2000/svg" xmlns:xlink="http://www.w3.org/1999/xlink" x="0px" y="0px"
	 viewBox="0 0 3000 2000" style="enable-background:new 0 0 3000 2000;" xml:space="preserve">
<g>
	<rect style="fill:#FFFFFF;" width="3000" height="2000"/>
	<path style="fill:#EBF3FA;" d="M2560.886,834.995c-138.396-47.615-223.063-774-801.406-380.922
		c-508.354,345.509-494.926-164.898-933.591,59.819C541.182,659.741,509.18,826.67,548.324,910.284
		c42.772,91.363-127.793,200.595-302.475,275.616c-274.006,117.679-72.517,531.248,186.339,533.225s2160.613-3.938,2160.613-3.938
		S3110.316,1024.028,2560.886,834.995z"/>
	<g id="man_4_">
		<g>
			<path style="fill:#233862;" d="M2621.826,1619.504c0,0,19.394,17.974,15.609,30.746c-3.784,12.771-21.286,21.286-23.651,36.895
				c-2.365,15.609-11.824,24.123-20.339,24.123c-8.514,0-40.592,0-40.592,0s-6.267-10.984,8.869-14.295
				c15.136-3.311,20.843-21.654,19.897-38.682c-0.946-17.029,1.419-39.733,1.419-39.733l32.164-7.567L2621.826,1619.504z"/>
			<path style="fill:#233862;" d="M2270.225,1711.238h107.789c0.937-0.198,1.648-0.405,2.102-0.632
				c7.184-3.592,4.944-31.076,4.076-39.593c-0.168-1.579-0.286-2.507-0.286-2.507s-37.848-30.268-43.048-7.087
				c-0.158,0.721-0.356,1.431-0.563,2.132c-6.543,21.682-35.922,31.542-52.887,34.285
				C2274.469,1699.938,2271.104,1707.459,2270.225,1711.238z"/>
			<path style="fill:#F4BE61;" d="M2291.91,1090.679c0,0,5.747,71.704,12.502,157.896c9.181,117.083,20.22,260.902,21.313,288.147
				c1.887,47.31,9.465,122.987,9.465,122.987s17.964,17.979,53.922,10.401c0,0,32.042-108.031,41.195-222.332
				c0.142-1.874,0.283-3.761,0.426-5.648c8.514-116.36,21.753-361.384,21.753-361.384L2291.91,1090.679z"/>
			<path style="fill:#F2A83D;" d="M2291.91,1090.679c0,0,5.747,71.704,12.502,157.896l125.896,199.203
				c0.142-1.874,0.283-3.761,0.426-5.648c8.514-116.36,21.753-361.384,21.753-361.384L2291.91,1090.679z"/>
			<path style="fill:#F4BE61;" d="M2318.155,1099.194c0,0,103.589,259.682,171.702,381.719
				c68.113,122.036,89.398,156.093,89.398,156.093s39.023-15.61,42.571-26.253c0,0-26.047-235.597-71.661-293.029
				c-25.775-32.452-56.051-129.84-57.47-163.898c-1.419-34.056-9.224-101.46-9.224-101.46L2318.155,1099.194z"/>
		</g>
		<path style="fill:#FFB27D;" d="M2213.396,1027.504l-5.921,11.802c0,0-30.109,4.208-21.821,35.595c0,0,4.465,12.914,12.768,8.828
			c8.303-4.085,4.213-3.74,16.113-9.24c11.899-5.498,18.785-16.064,16.125-25.756l1.906-10.274L2213.396,1027.504z"/>
		<path style="fill:#FFB27D;" d="M2371.283,698.351c-4.606-27.195-4.747-43.312-4.747-43.312l52.557-42.358
			c-1.952,58.243,35.369,86.249,35.369,86.249s-70.038,34.476-110.522,21.707C2343.941,720.637,2353.908,707.898,2371.283,698.351z"
			/>
		<path style="fill:#FFB27D;" d="M2354.156,654.077c0,0,66.863,11.108,73.14-30.638c6.276-41.745,19.133-68.426-23.292-77.283
			c-42.425-8.857-53.133,5.822-58.617,19.246C2339.902,578.826,2336.925,650.111,2354.156,654.077z"/>
		<path style="fill:#163560;" d="M2426.854,626.32c0,0-1.349-55.92-62.272-64.894c-41.73-6.147-16.458-41.017-11.688-46.539
			c0,0,31.899,6.087,64.549,13.253C2485.97,543.18,2434.097,618.005,2426.854,626.32z"/>
		<path style="fill:#1C468A;" d="M2220.413,1043.909c-8.938-9.17-15.574-21.111-15.574-21.111s75.969-94.386,82.145-104.174
			c6.175-9.788,52.313-166.785,52.313-166.785l116.674-23.636c0,0-97.387,200.921-113.521,225.414
			c-26.661,40.475-106.42,100.718-106.42,100.718S2227.433,1051.112,2220.413,1043.909z"/>
		<path style="fill:#365DA4;" d="M2287.443,1096.653c1.218,1.012,2.634,1.621,4.255,1.621c15.2-0.206,59.528,8.236,97.036,4.384
			c31.62-3.036,59.606-12.402,89.661-25.874c3.991-1.789,13.177-6.691,12.97-11.154c-0.135-4.884-0.62-11.968-1.229-20.891
			c-2.128-31.021-5.835-84.38-2.22-145.938c0.65-11.462,0.991-22.832,1.032-34.026c0.311-83.43-15.948-157.224-49.19-182.06
			c-2.84-2.034-20.556,6.898-36.573,14.797c-14.798,7.301-25.147,7.132-39.129,4.303l-18.432,13.334
			c-17.029,15.811-35.679,37.3-43.786,69.933c-6.898,27.768-10.946,77.843-13.177,129.735c-1.012,23.514-1.827,47.234-2.033,69.736
			v0.806c-0.197,2.23-0.197,4.668-0.197,6.899C2285.615,1050.027,2286.431,1095.836,2287.443,1096.653z"/>
		<path style="fill:#1C468A;" d="M2490.137,1044.74c-2.128-31.021-5.835-84.38-2.22-145.938c0.65-11.462,0.991-22.832,1.032-34.026
			c-13.847-33.593-25.166-57.954-25.166-57.954h-34.905C2428.878,806.822,2403.289,981.612,2490.137,1044.74z"/>
		<g>
			<path style="fill:#FFB27D;" d="M2558.044,1055.606l6.626,11.419c0,0-12.981,27.491,17.814,37.76c0,0,13.25,3.343,14.382-5.841
				c1.133-9.184-0.82-5.573,1.102-18.541c1.923-12.967-3.141-24.517-12.706-27.603l-7.549-7.225L2558.044,1055.606z"/>
			<path style="fill:#365DA4;" d="M2575.611,1058.728c-12.569,2.451-26.195,1.458-26.195,1.458s-37.315-115.272-42.117-125.802
				c-4.803-10.529-110.838-135.162-110.838-135.162l44.173-110.545c0,0,114.688,191.573,126.333,218.491
				c19.243,44.482,25.922,144.214,25.922,144.214S2585.483,1056.804,2575.611,1058.728z"/>
		</g>
	</g>
	
		<rect x="1105.488" y="744.489" transform="matrix(-1 -1.224647e-16 1.224647e-16 -1 2293.2148 1591.7043)" style="fill:#C65447;" width="82.239" height="102.727"/>
	
		<ellipse transform="matrix(0.1602 -0.9871 0.9871 0.1602 172.0863 1804.662)" style="fill:#E57970;" cx="1146.607" cy="801.199" rx="20.658" ry="20.658"/>
	<g>
		<path style="fill:#C65447;" d="M1148.083,813.026c-3.286-4.526-1.588-11.351-0.699-14.974c0.683-2.785-1.079-5.754-2.23-7.32
			c0.502-0.155,1.021-0.238,1.553-0.238c4.203,0,7.611,5.088,7.611,11.364C1154.317,807.431,1151.628,812.058,1148.083,813.026z"/>
		<path style="fill:#C65447;" d="M1143.415,791.623c1.654,1.742,3.696,4.595,2.602,7.258c-1.819,4.427-1.263,10.087-0.425,14.204
			c-3.673-0.807-6.495-5.519-6.495-11.228C1139.096,797.344,1140.862,793.458,1143.415,791.623z"/>
	</g>
	
		<rect x="1105.488" y="763.963" transform="matrix(-1 -1.224647e-16 1.224647e-16 -1 2293.2148 1529.504)" style="fill:#E57970;" width="82.239" height="1.579"/>
	
		<rect x="554.952" y="594.306" transform="matrix(-1 -1.224647e-16 1.224647e-16 -1 1457.6786 1205.4733)" style="fill:#1C468A;" width="347.775" height="16.862"/>
	
		<rect x="962.334" y="846.683" transform="matrix(-1 -1.224647e-16 1.224647e-16 -1 2245.0286 1710.2281)" style="fill:#1C468A;" width="320.361" height="16.862"/>
	<g>
		<rect x="1353.923" y="492.74" style="fill:#365DA4;" width="599.515" height="274.864"/>
		<g>
			<path style="fill:#FFFFFF;" d="M1380.658,515.425h8.471l9.389,15.104l9.39-15.104h8.471v35.72h-7.808v-23.32l-10.053,15.257
				h-0.204l-9.951-15.104v23.167h-7.705V515.425z"/>
			<path style="fill:#FFFFFF;" d="M1424.945,515.425h26.943v6.991h-19.136v7.246h16.84v6.991h-16.84v7.501h19.391v6.991h-27.198
				V515.425z"/>
			<path style="fill:#FFFFFF;" d="M1459.131,515.425h7.245l16.738,21.993v-21.993h7.756v35.72h-6.684l-17.299-22.708v22.708h-7.756
				V515.425z"/>
			<path style="fill:#FFFFFF;" d="M1498.878,535.836v-20.411h7.859v20.207c0,5.817,2.908,8.828,7.705,8.828
				c4.796,0,7.705-2.909,7.705-8.573v-20.462h7.859v20.156c0,10.818-6.072,16.125-15.666,16.125
				C1504.745,551.706,1498.878,546.348,1498.878,535.836z"/>
		</g>
		<g>
			<path style="opacity:0.2;fill:#FFFFFF;" d="M1492.679,575.389h-106.977c-3.082,0-5.603,2.521-5.603,5.603v6.302
				c0,3.082,2.521,5.603,5.603,5.603h106.977c3.082,0,5.603-2.521,5.603-5.603v-6.302
				C1498.282,577.91,1495.761,575.389,1492.679,575.389z"/>
			<path style="opacity:0.2;fill:#FFFFFF;" d="M1524.964,575.389h-1.647c-4.815,0-8.754,3.939-8.754,8.754v0
				c0,4.815,3.939,8.754,8.754,8.754h1.647c4.815,0,8.754-3.939,8.754-8.754v0C1533.718,579.328,1529.779,575.389,1524.964,575.389z
				"/>
			<path style="opacity:0.2;fill:#FFFFFF;" d="M1492.679,612.506h-106.977c-3.082,0-5.603,2.521-5.603,5.603v6.302
				c0,3.082,2.521,5.603,5.603,5.603h106.977c3.082,0,5.603-2.521,5.603-5.603v-6.302
				C1498.282,615.028,1495.761,612.506,1492.679,612.506z"/>
			<path style="opacity:0.2;fill:#FFFFFF;" d="M1524.964,612.506h-1.647c-4.815,0-8.754,3.939-8.754,8.754
				c0,4.815,3.939,8.754,8.754,8.754h1.647c4.815,0,8.754-3.939,8.754-8.754C1533.718,616.445,1529.779,612.506,1524.964,612.506z"
				/>
			<path style="opacity:0.2;fill:#FFFFFF;" d="M1492.679,649.939h-106.977c-3.082,0-5.603,2.521-5.603,5.603v6.303
				c0,3.082,2.521,5.603,5.603,5.603h106.977c3.082,0,5.603-2.521,5.603-5.603v-6.303
				C1498.282,652.46,1495.761,649.939,1492.679,649.939z"/>
			<path style="opacity:0.2;fill:#FFFFFF;" d="M1524.964,649.939h-1.647c-4.815,0-8.754,3.939-8.754,8.754
				c0,4.815,3.939,8.754,8.754,8.754h1.647c4.815,0,8.754-3.939,8.754-8.754C1533.718,653.878,1529.779,649.939,1524.964,649.939z"
				/>
			<path style="opacity:0.2;fill:#FFFFFF;" d="M1492.679,687.372h-106.977c-3.082,0-5.603,2.521-5.603,5.603v6.302
				c0,3.082,2.521,5.603,5.603,5.603h106.977c3.082,0,5.603-2.522,5.603-5.603v-6.302
				C1498.282,689.893,1495.761,687.372,1492.679,687.372z"/>
			<path style="opacity:0.2;fill:#FFFFFF;" d="M1524.964,687.372h-1.647c-4.815,0-8.754,3.939-8.754,8.754l0,0
				c0,4.815,3.939,8.754,8.754,8.754h1.647c4.815,0,8.754-3.94,8.754-8.754l0,0C1533.718,691.311,1529.779,687.372,1524.964,687.372
				z"/>
			<path style="opacity:0.2;fill:#FFFFFF;" d="M1492.679,724.804h-106.977c-3.082,0-5.603,2.521-5.603,5.603v6.302
				c0,3.081,2.521,5.603,5.603,5.603h106.977c3.082,0,5.603-2.522,5.603-5.603v-6.302
				C1498.282,727.326,1495.761,724.804,1492.679,724.804z"/>
			<path style="opacity:0.2;fill:#FFFFFF;" d="M1524.964,724.804h-1.647c-4.815,0-8.754,3.94-8.754,8.754s3.939,8.754,8.754,8.754
				h1.647c4.815,0,8.754-3.939,8.754-8.754S1529.779,724.804,1524.964,724.804z"/>
			<path style="opacity:0.2;fill:#FFFFFF;" d="M1696.489,575.389h-106.978c-3.082,0-5.603,2.521-5.603,5.603v6.302
				c0,3.082,2.521,5.603,5.603,5.603h106.978c3.082,0,5.603-2.521,5.603-5.603v-6.302
				C1702.092,577.91,1699.571,575.389,1696.489,575.389z"/>
			<path style="opacity:0.2;fill:#FFFFFF;" d="M1728.773,575.389h-1.647c-4.815,0-8.753,3.939-8.753,8.754v0
				c0,4.815,3.939,8.754,8.753,8.754h1.647c4.815,0,8.754-3.939,8.754-8.754v0C1737.528,579.328,1733.589,575.389,1728.773,575.389z
				"/>
			<path style="opacity:0.2;fill:#FFFFFF;" d="M1696.489,612.506h-106.978c-3.082,0-5.603,2.521-5.603,5.603v6.302
				c0,3.082,2.521,5.603,5.603,5.603h106.978c3.082,0,5.603-2.521,5.603-5.603v-6.302
				C1702.092,615.028,1699.571,612.506,1696.489,612.506z"/>
			<path style="opacity:0.2;fill:#FFFFFF;" d="M1728.773,612.506h-1.647c-4.815,0-8.753,3.939-8.753,8.754
				c0,4.815,3.939,8.754,8.753,8.754h1.647c4.815,0,8.754-3.939,8.754-8.754C1737.528,616.445,1733.589,612.506,1728.773,612.506z"
				/>
			<path style="opacity:0.2;fill:#FFFFFF;" d="M1696.489,649.939h-106.978c-3.082,0-5.603,2.521-5.603,5.603v6.303
				c0,3.082,2.521,5.603,5.603,5.603h106.978c3.082,0,5.603-2.521,5.603-5.603v-6.303
				C1702.092,652.46,1699.571,649.939,1696.489,649.939z"/>
			<path style="opacity:0.2;fill:#FFFFFF;" d="M1728.773,649.939h-1.647c-4.815,0-8.753,3.939-8.753,8.754
				c0,4.815,3.939,8.754,8.753,8.754h1.647c4.815,0,8.754-3.939,8.754-8.754C1737.528,653.878,1733.589,649.939,1728.773,649.939z"
				/>
			<path style="opacity:0.2;fill:#FFFFFF;" d="M1696.489,687.372h-106.978c-3.082,0-5.603,2.521-5.603,5.603v6.302
				c0,3.082,2.521,5.603,5.603,5.603h106.978c3.082,0,5.603-2.522,5.603-5.603v-6.302
				C1702.092,689.893,1699.571,687.372,1696.489,687.372z"/>
			<path style="opacity:0.2;fill:#FFFFFF;" d="M1728.773,687.372h-1.647c-4.815,0-8.753,3.939-8.753,8.754l0,0
				c0,4.815,3.939,8.754,8.753,8.754h1.647c4.815,0,8.754-3.94,8.754-8.754l0,0C1737.528,691.311,1733.589,687.372,1728.773,687.372
				z"/>
			<path style="opacity:0.2;fill:#FFFFFF;" d="M1696.489,724.804h-106.978c-3.082,0-5.603,2.521-5.603,5.603v6.302
				c0,3.081,2.521,5.603,5.603,5.603h106.978c3.082,0,5.603-2.522,5.603-5.603v-6.302
				C1702.092,727.326,1699.571,724.804,1696.489,724.804z"/>
			<path style="opacity:0.2;fill:#FFFFFF;" d="M1728.773,724.804h-1.647c-4.815,0-8.753,3.94-8.753,8.754s3.939,8.754,8.753,8.754
				h1.647c4.815,0,8.754-3.939,8.754-8.754S1733.589,724.804,1728.773,724.804z"/>
			<path style="opacity:0.2;fill:#FFFFFF;" d="M1886.222,575.389h-106.978c-3.082,0-5.603,2.521-5.603,5.603v6.302
				c0,3.082,2.521,5.603,5.603,5.603h106.978c3.082,0,5.604-2.521,5.604-5.603v-6.302
				C1891.826,577.91,1889.305,575.389,1886.222,575.389z"/>
			<path style="opacity:0.2;fill:#FFFFFF;" d="M1918.508,575.389h-1.647c-4.816,0-8.754,3.939-8.754,8.754v0
				c0,4.815,3.939,8.754,8.754,8.754h1.647c4.815,0,8.754-3.939,8.754-8.754v0C1927.261,579.328,1923.322,575.389,1918.508,575.389z
				"/>
			<path style="opacity:0.2;fill:#FFFFFF;" d="M1886.222,612.506h-106.978c-3.082,0-5.603,2.521-5.603,5.603v6.302
				c0,3.082,2.521,5.603,5.603,5.603h106.978c3.082,0,5.604-2.521,5.604-5.603v-6.302
				C1891.826,615.028,1889.305,612.506,1886.222,612.506z"/>
			<path style="opacity:0.2;fill:#FFFFFF;" d="M1918.508,612.506h-1.647c-4.816,0-8.754,3.939-8.754,8.754
				c0,4.815,3.939,8.754,8.754,8.754h1.647c4.815,0,8.754-3.939,8.754-8.754C1927.261,616.445,1923.322,612.506,1918.508,612.506z"
				/>
			<path style="opacity:0.2;fill:#FFFFFF;" d="M1886.222,649.939h-106.978c-3.082,0-5.603,2.521-5.603,5.603v6.303
				c0,3.082,2.521,5.603,5.603,5.603h106.978c3.082,0,5.604-2.521,5.604-5.603v-6.303
				C1891.826,652.46,1889.305,649.939,1886.222,649.939z"/>
			<path style="opacity:0.2;fill:#FFFFFF;" d="M1918.508,649.939h-1.647c-4.816,0-8.754,3.939-8.754,8.754
				c0,4.815,3.939,8.754,8.754,8.754h1.647c4.815,0,8.754-3.939,8.754-8.754C1927.261,653.878,1923.322,649.939,1918.508,649.939z"
				/>
			<path style="opacity:0.2;fill:#FFFFFF;" d="M1886.222,687.372h-106.978c-3.082,0-5.603,2.521-5.603,5.603v6.302
				c0,3.082,2.521,5.603,5.603,5.603h106.978c3.082,0,5.604-2.522,5.604-5.603v-6.302
				C1891.826,689.893,1889.305,687.372,1886.222,687.372z"/>
			<path style="opacity:0.2;fill:#FFFFFF;" d="M1918.508,687.372h-1.647c-4.816,0-8.754,3.939-8.754,8.754l0,0
				c0,4.815,3.939,8.754,8.754,8.754h1.647c4.815,0,8.754-3.94,8.754-8.754l0,0C1927.261,691.311,1923.322,687.372,1918.508,687.372
				z"/>
			<path style="opacity:0.2;fill:#FFFFFF;" d="M1886.222,724.804h-106.978c-3.082,0-5.603,2.521-5.603,5.603v6.302
				c0,3.081,2.521,5.603,5.603,5.603h106.978c3.082,0,5.604-2.522,5.604-5.603v-6.302
				C1891.826,727.326,1889.305,724.804,1886.222,724.804z"/>
			<path style="opacity:0.2;fill:#FFFFFF;" d="M1918.508,724.804h-1.647c-4.816,0-8.754,3.94-8.754,8.754s3.939,8.754,8.754,8.754
				h1.647c4.815,0,8.754-3.939,8.754-8.754S1923.322,724.804,1918.508,724.804z"/>
		</g>
	</g>
	<path style="fill:#163560;" d="M1304.841,614.535c0,0-4.133-8.465-24.794-6.145c-20.662,2.32-26.487,20.879-27.441,33.251
		c-0.954,12.372-44.933,160.328-38.091,200.328l78.12-34.46L1304.841,614.535z"/>
	<path style="fill:#C65447;" d="M1310.807,616.018c0,0-22.038-7.435-33.638,3.584c-11.598,11.019-5.027,25.597-5.027,25.597
		L1310.807,616.018z"/>
	<path style="fill:#163560;" d="M1380.402,659.426c0,0-0.409-48.588-78.611-42.994c-13.292,0.951-25.349,8.559-31.419,20.422
		c-8.797,17.192-12.632,47.454,15.789,95.978L1380.402,659.426z"/>
	<path style="fill:#A86337;" d="M1281.402,802.097l17.62,68.878l50.913,2.486l25.338-37.975
		c-23.691-17.954-27.039-49.438-26.695-68.113c0-0.183,0.011-0.366,0.011-0.549c0.205-8.794,1.206-14.617,1.206-14.617
		l-36.123-11.001l-27.513-8.374c2.53,20.989,2.358,36.134,1.217,46.812C1285.577,796.338,1281.402,802.097,1281.402,802.097z"/>
	<g>
		<polygon style="fill:#1C468A;" points="1713.684,1078.224 1763.948,1078.224 1780.186,1131.654 1767.427,1131.654 
			1767.427,1161.283 1736.883,1161.283 1736.883,1131.654 1724.896,1131.654 		"/>
		<g>
			<polygon style="opacity:0.6;fill:#DCEBF9;" points="1759.955,1083.394 1721.488,1083.394 1730.069,1126.484 1772.382,1126.484 
							"/>
			<g>
				<path style="fill:#1C468A;" d="M1728.064,1088.434h30.158c0.533,0,0.967,0.432,0.967,0.966c0,0.534-0.433,0.967-0.967,0.967
					h-30.158c-0.534,0-0.966-0.433-0.966-0.967C1727.098,1088.866,1727.531,1088.434,1728.064,1088.434z"/>
				<path style="fill:#1C468A;" d="M1728.601,1092.107h30.298c0.533,0,0.967,0.432,0.967,0.967c0,0.533-0.433,0.966-0.967,0.966
					h-30.298c-0.534,0-0.967-0.432-0.967-0.966C1727.634,1092.539,1728.067,1092.107,1728.601,1092.107z"/>
				<path style="fill:#1C468A;" d="M1736.302,1120.754h30.158c0.534,0,0.967,0.433,0.967,0.967c0,0.534-0.432,0.967-0.967,0.967
					h-30.158c-0.534,0-0.966-0.432-0.966-0.967C1735.336,1121.187,1735.769,1120.754,1736.302,1120.754z"/>
			</g>
		</g>
	</g>
	<polygon style="fill:#365DA4;" points="1721.488,992.117 1518.503,992.117 1486.025,1123.07 1686.69,1123.07 	"/>
	<path style="fill:#F4BE61;" d="M1222.757,817.303c8.832-16.369,56.397-16.639,56.397-16.639
		c4.584,5.537,30.304,22.561,61.038,23.101c21.65,0.38,13.177-20.618,13.177-20.618c1.065,0.15,5.704-0.895,6.777-0.55
		c6.531,2.091,11.201,6.638,14.329,10.901c-0.199-4.031-0.307-6.407-0.307-6.407s45.14,12.314,109.918,122.26
		c1.917,3.255,7.385,2.727,20.102,0.262c16.191-3.156,49.239-2.745,99.101-10.066c0,0,1.715,1.242,2.182,6.695
		c1.027,12.036,2.234,15.598,2.234,15.598s-32.833,15.477-67.754,26.532c-12.353,3.921-25.266,7.582-37.592,10.336
		c-11.476,2.567-22.447,4.351-31.971,4.799c0,0-25.758-9.891-55.907-35.882c2.468,17.513,3.706,30.054,3.595,31.456
		c-1.28,16.303,0.607,41.486,0.607,41.486s-130.891,35.677-169.445,17.348c-6.358-3.025-10.205-7.516-10.541-13.875
		c-3.772-71.309-20.495-129.191-22.129-169.164C1215.931,839.684,1217.481,827.079,1222.757,817.303z"/>
	<path style="fill:#F2A83D;" d="M1278.313,895.27c-23.421-7.276-46.861,11.181-45.274,35.655c1.562,24.085,3.492,52.2,5.657,93.115
		c0.336,6.359,4.183,10.85,10.541,13.875l37.481-77.751L1278.313,895.27L1278.313,895.27z"/>
	<polygon style="fill:#365DA4;" points="1666.873,1034.471 1577.56,1034.471 1543.342,1161.281 1637.296,1161.281 	"/>
	<path style="fill:#EE9849;" d="M1220.021,1149.764l17.782-129.783c0.254-1.893,1.066-3.632,2.238-5.108
		c22.398-28.207,24.73-116.364,24.776-150.012c0.011-7.21,5.673-13.026,12.665-13.11c-0.529-1.613-10.817-32.798-20.306-48.419
		c-1.746-2.874,0.015-6.591,3.343-7.074l0,0c1.738-0.253,3.469,0.48,4.491,1.909c5.131,7.176,20.59,29.988,27.626,53.656h-4.805
		l4.268,0.035c0.359,0,0.719,0.024,1.078,0.072c40.009,4.918,74.092,2.49,94.418-0.111h-2.993c0,0-8.866-26.905-17.82-44.179
		c-1.989-3.836,1.741-8.118,5.814-6.676c0.045,0.016,0.09,0.032,0.136,0.048c0.945,0.334,1.752,0.952,2.322,1.777
		c6.74,9.77,18.199,27.401,24.257,47.581c4.823,0.348,8.872,4.25,9.313,9.418l5.219,60.963l7.157,83.513
		c2.575,18.491,1.938,115.101,1.647,147.036c-0.058,5.691-4.558,10.263-10.091,10.263h-182.547
		C1223.883,1161.564,1219.162,1156.003,1220.021,1149.764z"/>
	<polygon style="fill:#1C468A;" points="1577.56,1034.471 1571.52,1034.471 1533.89,1161.283 1544.116,1161.283 	"/>
	<polygon style="fill:#1C468A;" points="1518.503,992.117 1514.976,992.117 1482.112,1123.07 1486.025,1123.07 	"/>
	<path style="fill:#B77446;" d="M1362.171,768.386c0,0-77.616,3.547-79.08-44.822c-1.465-48.369-12.469-80.487,37.025-84.797
		c49.493-4.309,59.685,13.856,64.101,29.882C1388.632,684.674,1382.323,766.217,1362.171,768.386z"/>
	<path style="fill:#163560;" d="M1313.371,633.886c0,0,13.289-4.231,34.553-4.231c21.265,0,46.397,15.852,49.49,40.984
		c3.093,25.131-12.812,34.793-12.812,34.793c3.696-26.789-30.878-47.552-30.878-47.552l-0.292-0.174
		c-13.447,5.651-37.686,13.513-39.919,28.398c-3.479,23.198-30.626,32.077-30.626,32.077S1259.634,631.8,1313.371,633.886z"/>
	<path style="fill:#FFFFFF;" d="M1371.474,742.063c0,0-0.561,4.915-12.544,5.583c0,0-10.06,0.562-10.376-4.729
		C1348.554,742.917,1357.797,738.034,1371.474,742.063z"/>
	<rect x="460.278" y="1160.916" style="fill:#C65447;" width="1245.253" height="552.849"/>
	<g>
		<path style="fill:#B77446;" d="M1966.494,1702.609c-0.962,11.898-17.759,11.902-36.802,9.55
			c-19.044-2.352-14.012,2.509-40.702,2.683c-26.69,0.173-35.824-8.714-37.087-12.538c-1.127-3.391,11.748-6.145,25.523-9.391
			c1.732-0.403,3.471-0.827,5.209-1.252c15.534-3.827,28.958-12.229,39.227-25.39c11.577-14.835,22.159-82.375,22.159-82.375
			l41.706,7.781c0,0-24.277,57.891-26.766,76.877c-1.118,8.521,4.941,14.205,6.36,21.662
			C1966.081,1694.272,1966.838,1698.418,1966.494,1702.609z"/>
		<path style="fill:#365DA4;" d="M1851.907,1702.305c0.995,3.048,7.01,9.316,22.942,11.637h29.692
			c10.161-1.342,11.147-3.513,25.153-1.784c19.042,2.352,35.842,2.345,36.797-9.552c0.348-4.185-0.41-8.337-1.169-12.387
			c-12.371,1.247-30.702,8.589-48.624,10.247c-21.994,2.053-39.11-7.303-39.11-7.303l-0.167-0.253
			C1863.654,1696.164,1850.777,1698.911,1851.907,1702.305z"/>
		<g>
			<path style="fill:#365DA4;" d="M1929.204,1632.534c0,0,10.925,7.227,21.195,9.095c15.406,2.801,22.559-0.308,22.559-0.308
				s74.101-186.055,69.872-248.923c-0.103-1.513-0.159-3.119-0.178-4.818c-0.121-10.906,1.448-25.444,4.156-42.177
				c0.999-6.135,2.148-12.559,3.427-19.207c2.969-15.5,6.648-32.223,10.691-49.273c1.774-7.508,3.632-15.08,5.519-22.643
				c18.628-74.39,41.392-147.697,41.392-147.697s-133.719-43.68-141.283-2.857c-2.903,15.668-12.568,78.358-8.217,174.215
				c3.511,77.163,1.242,137.352-5.425,207.204C1947.047,1546.491,1937.018,1599.256,1929.204,1632.534z"/>
		</g>
		<path style="fill:#285493;" d="M2042.651,1387.58c-0.121-10.906,1.448-25.444,4.156-42.177c0.999-6.135,2.148-12.559,3.427-19.207
			c2.969-15.5,6.648-32.223,10.691-49.273c1.774-7.508,3.632-15.08,5.519-22.643c-2.643-22.699-4.772-38.273-4.772-38.273
			S2006.152,1291.414,2042.651,1387.58z"/>
		<path style="fill:#B77446;" d="M2020.594,1702.305c0.939,2.85,6.276,8.527,20.021,11.147h35.786
			c7.39-1.302,9.585-2.826,21.987-1.295c19.042,2.352,35.834,2.345,36.797-9.552c0.348-4.185-0.41-8.337-1.168-12.387
			c-1.421-7.461-6.363-13.073-6.363-21.663c0-25.524,5.913-71.898,5.913-71.898l-39.213,14.005c0,0,8.842,46.106-3.797,55.611
			c-13.343,10.034-23.692,21.56-39.229,25.39c-1.737,0.426-3.473,0.844-5.21,1.247
			C2032.341,1696.164,2019.473,1698.911,2020.594,1702.305z"/>
		<path style="fill:#365DA4;" d="M2020.594,1702.305c0.939,2.858,6.276,8.535,20.037,11.147h35.779
			c7.381-1.302,9.576-2.826,21.979-1.295c19.042,2.352,35.834,2.345,36.797-9.552c0.348-4.185-0.41-8.337-1.168-12.387
			c-12.371,1.247-30.702,8.589-48.623,10.247c-21.995,2.053-39.111-7.303-39.111-7.303l-0.166-0.253
			C2032.341,1696.164,2019.473,1698.911,2020.594,1702.305z"/>
		<path style="fill:#365DA4;" d="M2027.285,1092.024c0,0,43.506,216.822,50.855,334.832
			c7.349,118.009,16.523,215.709,16.523,215.709s9.494,3.424,20.387,2.802c11.501-0.658,20.62-4.203,20.62-4.203
			s43.119-177.551,28.837-248.621c-14.281-71.07-2.384-136.624,4.472-195.573c9.83-84.525-27.992-123.813-54.395-150.592
			C2087.855,1019.27,2027.285,1092.024,2027.285,1092.024z"/>
		<path style="fill:#C45446;" d="M1996.452,694.892c-4.323-35.3,6.702-91.787,77.16-82.761
			c70.457,9.026,92.661,78.269,78.451,109.057c-14.21,30.788,20.455,38.212,31.338,71.321c9.349,28.443,12.608,63.757,27.737,79.606
			c48.775,51.098-46.827,129.675-104.46,113.106c-104.977-30.181-118.498-34.685-114.771-117.167
			c1.91-42.26,34.789-58.634,13.913-70.861C1955.389,767.654,2006.234,774.771,1996.452,694.892z"/>
		<path style="fill:#E49963;" d="M2011.939,786.199c1.07,0,9.502-2.601,23.686-3.944c6.91-20.82,3.162-42.621,3.162-42.621
			l52.42-15.963c2.504,55.248,7.44,62.567,8.552,63.522c10.853,2.582,22.479,6.206,34.745,11.202c0,0-33.468,191.474-19.092,228.017
			c14.376,36.543,19.84,68.976,19.84,68.976l-155.956,1.934c0,0,2.18-125.43-5.008-169.823
			C1967.098,883.106,2011.939,786.199,2011.939,786.199z"/>
		<path style="fill:#E49963;" d="M2025.1,743.191c0,0,62.757,12.603,70.004-26.599c7.247-39.202,20.227-63.978-19.535-73.682
			c-39.762-9.705-50.334,3.811-55.936,16.308C2014.032,671.714,2008.962,738.902,2025.1,743.191z"/>
		<path style="fill:#A8D29F;" d="M1752.915,915.036c0.466-5.453,2.182-6.695,2.182-6.695c49.861,7.321,82.909,6.91,99.1,10.066
			c12.717,2.465,17.918,2.82,20.103-0.261c68.881-96.856,117.631-127.277,117.631-127.277s5.201-3.09,25.538-5.892
			c0,0,2.923,36.827,21.849,39.955c32.737,5.397,59.115-24.586,66.818-36.659c0,0,37.592,9.487,48.629,22.064
			c7.927,9.038,6.891,30.664,4.538,44.259c-0.747,4.314-1.625,7.825-2.391,9.86c-2.325,6.153-11.13,51.309-15.145,69.283
			c-0.093,0.458-0.187,0.878-0.271,1.27c-0.28,1.204-0.523,2.259-0.747,3.137c-0.01,0.028-0.01,0.047-0.019,0.075
			c-0.233,0.961-0.429,1.708-0.588,2.194c-0.093,0.289-0.187,0.588-0.28,0.878c0,0.019-0.01,0.037-0.019,0.056
			c-5.799,18.488-9.29,37.33-7.236,60.44c0.243,2.718,0.868,5.995,1.793,9.683c5.238,26.854,27.003,79.797,31.522,104.102
			c-2.604,5.491-8.505,9.833-15.686,13.297c-9.366,4.519-20.878,7.535-30.048,9.636c-7.096,1.635-18.011,3.464-30.598,4.874
			c-6.676,0.747-13.828,1.382-21.112,1.802c-1.027,0.066-2.045,0.121-3.072,0.168c-46.985,2.334-99.592,1.176-106.445-21.159
			c-3.288-10.719,9.813-75.156,11.559-94.307c3.052-33.634-1.923-79.691-4.17-115.354c-38.558,42.489-78.353,57.771-78.353,57.771
			c-9.524-0.448-20.495-2.232-31.971-4.8c-12.325-2.754-25.239-6.414-37.592-10.336c-34.921-11.055-67.754-26.532-67.754-26.532
			S1751.888,927.072,1752.915,915.036z"/>
		<path style="fill:#C45446;" d="M2018.844,635.889c30.958-30.508,62.158-20.068,62.158-20.068s15.635,17.743,26.252,29.688
			c18.557,20.876-16.227,86.26-16.227,86.26s4.921-40.224-15.719-62.787c-9.838-10.755-14.731-19.398-17.164-25.505
			c-3.876,3.093-8.094,5.692-12.54,7.252c-19.969,7.007-30.941,39.133-30.941,39.133
			C2007.521,674.869,2005.506,649.032,2018.844,635.889z"/>
		<path style="fill:#FFFFFF;" d="M2044.652,723.903c0,0-1.678,4.653-13.493,2.541c0,0-9.919-1.771-9.007-6.993
			C2022.152,719.45,2032.271,716.829,2044.652,723.903z"/>
		<path style="fill:#82B378;" d="M2032.054,1073.351c8.899,30.187,14.071,55.034,36.424,71.832
			c7.283-0.42,14.436-1.055,21.112-1.802c12.587-1.41,23.502-3.24,30.598-4.874c9.17-2.101,20.682-5.117,30.048-9.636
			c7.181-3.464,13.082-7.806,15.686-13.297c-4.519-24.305-26.284-77.247-31.522-104.102c-0.514-2.614-0.869-4.977-1.037-7.04
			c-1.942-24.053,1.176-43.811,6.48-63.083c0.009-0.018,0.019-0.037,0.019-0.056c0.289-1.027,0.578-2.045,0.868-3.072
			c0.009-0.028,0.009-0.047,0.019-0.075c0.187-0.663,0.438-1.737,0.747-3.138c0.084-0.392,0.177-0.812,0.271-1.27
			c3.586-17.031,12.969-70.478,15.36-77.453c0.756-2.204,1.606-5.985,2.344-10.645l-18.778-18.068
			c0,0-107.734,46.005-131.469,109.462C1985.488,1000.492,2019.271,1030.044,2032.054,1073.351z"/>
		<path style="fill:#82B378;" d="M1818.435,957.167c23.847,7.563,49.795,14.192,69.562,15.136c0,0,40.328-15.482,79.125-58.62
			c1.634-7.33,3.212-19.627-5.667-16.079c-12.457,4.977-58.518,64.119-75.95,65.361
			C1873.03,963.852,1837.567,959.641,1818.435,957.167z"/>
		<path style="fill:#A8D29F;" d="M1903.521,940.322c0,0,53.106,26.677,99.148,37.714c13.25,3.174,26.013,5.424,36.901,5.938
			c0,0,49.515-15.229,87.304-68.163c72.99-102.243,16.639-113.271,16.639-113.271s-48.759,30.421-117.631,127.277
			c-2.409,3.389-8.46,2.624-24.128-0.542c-16.732-3.38-50.039-2.979-96.016-9.73c0,0-0.775,1.709-1.242,7.162
			C1903.46,938.744,1903.521,940.322,1903.521,940.322z"/>
		<path style="fill:#E49963;" d="M1698.377,899.959c5.955-5.605,33.982-2.102,44.492,3.153c4.024,2.013,8.355,3.612,12.17,4.822
			c49.051,7.105,83.131,7.349,99.158,10.473c3.361,9.935,6.779,27.088,1.83,49.095c-12.325-2.754-25.239-6.414-37.592-10.336
			c-33.304-10.543-64.707-25.107-67.545-26.433c-4.955-0.774-11.672-1.45-20.633-1.696
			C1704.682,928.336,1692.421,905.565,1698.377,899.959z"/>
		<path style="fill:#E49963;" d="M1839.159,907.545c6.357-5.984,36.278-2.244,47.498,3.366c6.559,3.28,13.882,5.535,18.837,6.844
			c0.007-0.045,0.012-0.077,0.012-0.077c45.977,6.751,79.516,8.217,96.249,11.597c-5.239,11.298-9.188,28.768,0.915,48.76
			c-43.973-10.541-95.502-34.068-100.046-36.162c-5.159-1.311-14.308-2.872-29.431-3.287
			C1845.891,937.839,1832.801,913.529,1839.159,907.545z"/>
	</g>
	<path style="fill:#F4BE61;" d="M1474.472,948.025c0,0-53.106,26.677-99.148,37.714c-13.249,3.175-26.013,5.425-36.901,5.938
		c0,0-49.516-15.229-87.304-68.162c-72.99-102.244-16.639-113.271-16.639-113.271s48.759,30.421,117.632,127.277
		c2.409,3.39,8.46,2.624,24.127-0.542c16.732-3.38,50.039-2.979,96.015-9.729c0,0,0.776,1.708,1.243,7.162
		C1474.533,946.447,1474.472,948.025,1474.472,948.025z"/>
	<path style="fill:#A86337;" d="M1504.188,929.612c16.028-3.124,50.107-3.368,99.158-10.472c3.815-1.211,8.145-2.81,12.171-4.823
		c10.51-5.255,38.536-8.758,44.492-3.153c5.955,5.605-6.307,28.377-31.88,29.078c-8.961,0.245-15.678,0.921-20.633,1.695
		c-2.839,1.327-34.241,15.891-67.545,26.434c-12.353,3.921-25.266,7.582-37.592,10.336
		C1497.409,956.7,1500.827,939.547,1504.188,929.612z"/>
	<g>
		<g>
			<polygon style="fill:#C65447;" points="1492.424,864.42 1493.026,878.195 1494.285,906.988 1494.86,920.249 1531.404,920.249 
				1532.234,906.988 1534.028,878.195 1534.885,864.42 			"/>
			<polygon style="fill:#E57970;" points="1491.727,855.114 1535.016,855.114 1536.8,864.42 1490.509,864.42 			"/>
			<polygon style="fill:#E57970;" points="1493.026,878.195 1494.285,906.988 1532.234,906.988 1534.028,878.195 			"/>
		</g>
		<g>
			<polygon style="fill:#C65447;" points="1558.719,864.42 1559.321,878.195 1560.579,906.988 1561.155,920.249 1597.699,920.249 
				1598.529,906.988 1600.323,878.195 1601.18,864.42 			"/>
			<polygon style="fill:#E57970;" points="1558.022,855.114 1601.311,855.114 1603.095,864.42 1556.804,864.42 			"/>
			<polygon style="fill:#E57970;" points="1559.321,878.195 1560.579,906.988 1598.529,906.988 1600.323,878.195 			"/>
		</g>
		
			<rect x="1455.995" y="920.249" transform="matrix(-1 -1.224647e-16 1.224647e-16 -1 3095.2844 1850.1449)" style="fill:#1C468A;" width="183.294" height="9.648"/>
	</g>
	<path style="fill:#B77446;" d="M1375.324,985.739c10.103-19.991,6.153-37.461,0.915-48.76c16.732-3.38,50.272-4.846,96.25-11.597
		c0,0,0.005,0.032,0.011,0.077c4.955-1.309,12.277-3.565,18.837-6.845c11.22-5.61,41.14-9.35,47.498-3.366
		c6.358,5.984-6.732,30.294-34.035,31.042c-15.122,0.414-24.27,1.975-29.43,3.287
		C1470.825,951.672,1419.297,975.198,1375.324,985.739z"/>
	<path style="fill:#E57970;" d="M1842.873,1160.916c20.863,0,37.932,18.91,37.932,42.023l0,0c0,23.112-17.069,42.022-37.932,42.022
		H327.027c-23.208,0-42.022-18.814-42.022-42.022v0c0-23.208,18.814-42.022,42.022-42.022H1842.873z"/>
	
		<rect x="575.356" y="491.579" transform="matrix(-1 -1.224647e-16 1.224647e-16 -1 1232.9515 1085.8846)" style="fill:#F4BE61;" width="82.239" height="102.727"/>
	
		<rect x="686.278" y="491.579" transform="matrix(-1 -1.224647e-16 1.224647e-16 -1 1454.7937 1085.8846)" style="fill:#C65447;" width="82.239" height="102.727"/>
	
		<rect x="793.074" y="491.579" transform="matrix(-1 -1.224647e-16 1.224647e-16 -1 1668.3868 1085.8846)" style="fill:#A8D29F;" width="82.239" height="102.727"/>
	<circle style="fill:#E57970;" cx="615.029" cy="544.013" r="31.382"/>
	
		<ellipse transform="matrix(0.9571 -0.2898 0.2898 0.9571 -127.6746 234.3145)" style="fill:#E57970;" cx="727.397" cy="548.289" rx="20.658" ry="20.658"/>
	<circle style="fill:#C65447;" cx="837.397" cy="546.579" r="28.816"/>
	<g>
		<path style="fill:#A8D29F;" d="M839.134,560.769c-4.147-5.712-2.004-14.326-0.882-18.899c0.862-3.515-1.362-7.262-2.814-9.239
			c0.633-0.196,1.288-0.301,1.96-0.301c5.305,0,9.605,6.421,9.605,14.342C847.002,553.707,843.608,559.547,839.134,560.769z"/>
		<path style="fill:#A8D29F;" d="M833.242,533.757c2.088,2.199,4.664,5.799,3.283,9.161c-2.295,5.587-1.594,12.731-0.536,17.926
			c-4.636-1.019-8.198-6.966-8.198-14.171C827.792,540.977,830.021,536.072,833.242,533.757z"/>
	</g>
	<g>
		<path style="fill:#C65447;" d="M728.872,560.116c-3.286-4.526-1.588-11.351-0.699-14.974c0.683-2.785-1.079-5.754-2.23-7.321
			c0.501-0.155,1.021-0.238,1.553-0.238c4.203,0,7.611,5.088,7.611,11.364C735.107,554.521,732.417,559.148,728.872,560.116z"/>
		<path style="fill:#C65447;" d="M724.204,538.713c1.654,1.742,3.695,4.595,2.601,7.258c-1.819,4.427-1.263,10.087-0.425,14.204
			c-3.673-0.808-6.495-5.52-6.495-11.228C719.885,544.434,721.651,540.548,724.204,538.713z"/>
	</g>
	<g>
		<path style="fill:#F4BE61;" d="M616.875,559.087c-4.408-6.071-2.13-15.227-0.938-20.088c0.916-3.736-1.448-7.719-2.991-9.82
			c0.673-0.208,1.369-0.32,2.083-0.32c5.639,0,10.21,6.825,10.21,15.245C625.239,551.581,621.631,557.788,616.875,559.087z"/>
		<path style="fill:#F4BE61;" d="M610.613,530.375c2.219,2.338,4.958,6.165,3.49,9.737c-2.44,5.938-1.694,13.532-0.57,19.054
			c-4.927-1.083-8.714-7.404-8.714-15.063C604.82,538.05,607.189,532.836,610.613,530.375z"/>
	</g>
	
		<rect x="575.356" y="499.868" transform="matrix(-1 -1.224647e-16 1.224647e-16 -1 1232.9515 1001.3158)" style="fill:#EE9849;" width="82.239" height="1.579"/>
	
		<rect x="686.278" y="511.053" transform="matrix(-1 -1.224647e-16 1.224647e-16 -1 1454.7937 1023.6843)" style="fill:#E57970;" width="82.239" height="1.579"/>
	
		<rect x="793.074" y="496.513" transform="matrix(-1 -1.224647e-16 1.224647e-16 -1 1668.3868 994.6053)" style="fill:#66A357;" width="82.239" height="1.579"/>
	
		<rect x="1003.251" y="744.489" transform="matrix(-1 -1.224647e-16 1.224647e-16 -1 2088.741 1591.7043)" style="fill:#A8D29F;" width="82.239" height="102.727"/>
	
		<ellipse transform="matrix(0.7071 -0.7071 0.7071 0.7071 -258.4967 974.9115)" style="fill:#C65447;" cx="1047.574" cy="799.489" rx="28.816" ry="28.816"/>
	<g>
		<path style="fill:#A8D29F;" d="M1049.311,813.679c-4.147-5.712-2.004-14.326-0.882-18.899c0.862-3.514-1.362-7.262-2.814-9.239
			c0.633-0.196,1.288-0.301,1.96-0.301c5.305,0,9.605,6.421,9.605,14.342C1057.179,806.617,1053.785,812.457,1049.311,813.679z"/>
		<path style="fill:#A8D29F;" d="M1043.42,786.667c2.088,2.199,4.664,5.8,3.283,9.161c-2.295,5.587-1.594,12.731-0.536,17.926
			c-4.636-1.019-8.198-6.966-8.198-14.171C1037.969,793.887,1040.198,788.982,1043.42,786.667z"/>
	</g>
	
		<rect x="1003.251" y="749.423" transform="matrix(-1 -1.224647e-16 1.224647e-16 -1 2088.741 1500.425)" style="fill:#66A357;" width="82.239" height="1.579"/>
	<g>
		<g>
			<polygon style="fill:#C65447;" points="789.879,815.553 789.277,801.779 788.018,772.985 787.443,759.725 750.899,759.725 
				750.069,772.985 748.275,801.779 747.418,815.553 			"/>
			<polygon style="fill:#E57970;" points="790.576,824.859 747.287,824.859 745.503,815.553 791.794,815.553 			"/>
			<polygon style="fill:#E57970;" points="789.277,801.779 788.018,772.985 750.069,772.985 748.275,801.779 			"/>
		</g>
		<g>
			<polygon style="fill:#C65447;" points="789.879,805.389 789.277,791.614 788.018,762.821 787.443,749.56 750.899,749.56 
				750.069,762.821 748.275,791.614 747.418,805.389 			"/>
			<polygon style="fill:#E57970;" points="790.576,814.695 747.287,814.695 745.503,805.389 791.794,805.389 			"/>
			<polygon style="fill:#E57970;" points="789.277,791.614 788.018,762.821 750.069,762.821 748.275,791.614 			"/>
		</g>
		<g>
			<polygon style="fill:#C65447;" points="789.879,794.978 789.277,781.203 788.018,752.41 787.443,739.149 750.899,739.149 
				750.069,752.41 748.275,781.203 747.418,794.978 			"/>
			<polygon style="fill:#E57970;" points="790.576,804.284 747.287,804.284 745.503,794.978 791.794,794.978 			"/>
			<polygon style="fill:#E57970;" points="789.277,781.203 788.018,752.41 750.069,752.41 748.275,781.203 			"/>
		</g>
		<g>
			<polygon style="fill:#C65447;" points="789.879,784.517 789.277,770.743 788.018,741.949 787.443,728.688 750.899,728.688 
				750.069,741.949 748.275,770.743 747.418,784.517 			"/>
			<polygon style="fill:#E57970;" points="790.576,793.823 747.287,793.823 745.503,784.517 791.794,784.517 			"/>
			<polygon style="fill:#E57970;" points="789.277,770.743 788.018,741.949 750.069,741.949 748.275,770.743 			"/>
		</g>
		<g>
			<polygon style="fill:#C65447;" points="789.879,774.007 789.277,760.233 788.018,731.439 787.443,718.179 750.899,718.179 
				750.069,731.439 748.275,760.233 747.418,774.007 			"/>
			<polygon style="fill:#E57970;" points="790.576,783.313 747.287,783.313 745.503,774.007 791.794,774.007 			"/>
			<polygon style="fill:#E57970;" points="789.277,760.233 788.018,731.439 750.069,731.439 748.275,760.233 			"/>
		</g>
		<g>
			<polygon style="fill:#C65447;" points="789.879,763.596 789.277,749.822 788.018,721.028 787.443,707.767 750.899,707.767 
				750.069,721.028 748.275,749.822 747.418,763.596 			"/>
			<polygon style="fill:#E57970;" points="790.576,772.902 747.287,772.902 745.503,763.596 791.794,763.596 			"/>
			<polygon style="fill:#E57970;" points="789.277,749.822 788.018,721.028 750.069,721.028 748.275,749.822 			"/>
		</g>
		<g>
			<polygon style="fill:#C65447;" points="740.339,815.553 739.737,801.779 738.478,772.985 737.903,759.725 701.359,759.725 
				700.529,772.985 698.735,801.779 697.878,815.553 			"/>
			<polygon style="fill:#E57970;" points="741.036,824.859 697.748,824.859 695.964,815.553 742.254,815.553 			"/>
			<polygon style="fill:#E57970;" points="739.737,801.779 738.478,772.985 700.529,772.985 698.735,801.779 			"/>
		</g>
		<g>
			<polygon style="fill:#C65447;" points="740.339,805.043 739.737,791.269 738.478,762.476 737.903,749.215 701.359,749.215 
				700.529,762.476 698.735,791.269 697.878,805.043 			"/>
			<polygon style="fill:#E57970;" points="741.036,814.349 697.748,814.349 695.964,805.043 742.254,805.043 			"/>
			<polygon style="fill:#E57970;" points="739.737,791.269 738.478,762.476 700.529,762.476 698.735,791.269 			"/>
		</g>
		<g>
			<polygon style="fill:#C65447;" points="740.339,794.632 739.737,780.858 738.478,752.064 737.903,738.804 701.359,738.804 
				700.529,752.064 698.735,780.858 697.878,794.632 			"/>
			<polygon style="fill:#E57970;" points="741.036,803.938 697.748,803.938 695.964,794.632 742.254,794.632 			"/>
			<polygon style="fill:#E57970;" points="739.737,780.858 738.478,752.064 700.529,752.064 698.735,780.858 			"/>
		</g>
		<g>
			<g>
				
					<rect x="509.416" y="916.384" transform="matrix(-1 -1.224647e-16 1.224647e-16 -1 1354.1893 2063.3269)" style="fill:#365DA4;" width="335.358" height="230.559"/>
				
					<rect x="497.538" y="895.424" transform="matrix(-1 -1.224647e-16 1.224647e-16 -1 1353.4907 1832.7682)" style="fill:#163560;" width="358.414" height="41.92"/>
				
					<rect x="497.538" y="1118.996" transform="matrix(-1 -1.224647e-16 1.224647e-16 -1 1353.4907 2279.9121)" style="fill:#163560;" width="358.414" height="41.92"/>
				<path style="fill:#163560;" d="M787.134,937.344v21.908l63.135,23.75c5.064,1.905,7.565,7.607,5.536,12.624
					c-2.029,5.016-7.791,7.376-12.755,5.225l-57.219-24.793c-3.353,11.017-12.879,19.325-24.548,20.935v8.427
					c0,2.098-1.701,3.799-3.799,3.799c-2.098,0-3.799-1.701-3.799-3.799v-8.339c-14.918-1.723-26.506-14.38-26.506-29.76v-29.977
					H787.134z"/>
				<path style="fill:#163560;" d="M567.047,937.344v21.908l-63.136,23.75c-5.064,1.905-7.565,7.607-5.536,12.624
					c2.029,5.016,7.791,7.376,12.755,5.225l57.219-24.793c3.353,11.017,12.879,19.325,24.548,20.935v8.427
					c0,2.098,1.701,3.799,3.799,3.799c2.098,0,3.799-1.701,3.799-3.799v-8.339c14.918-1.723,26.506-14.38,26.506-29.76v-29.977
					H567.047z"/>
				
					<rect x="541.292" y="824.859" transform="matrix(-1 -1.224647e-16 1.224647e-16 -1 1353.4907 1720.2834)" style="fill:#365DA4;" width="270.906" height="70.565"/>
			</g>
			<g>
				<path style="fill:#C45446;" d="M716.533,1098.52c4.545,5.398,19.026,8.962,19.026,8.962l-0.002-0.006
					c5.633,6.392,13.865,10.446,23.003,10.446c16.875,0,30.681-13.807,30.681-30.681v-11.945c0-1.299-0.092-2.577-0.25-3.835
					h-60.862c-0.158,1.258-0.25,2.536-0.25,3.835v5.875c-4.058-0.851-9.657-1.544-12.535,0.232
					C710.514,1084.387,711.987,1093.122,716.533,1098.52z M720.101,1085.168c2.434-0.442,5.752,1.241,7.853,4.118
					c0.238,3.563,1.088,6.965,2.449,10.098c-3.405-0.829-10.311-2.967-11.847-6.937
					C716.612,1087.421,717.926,1085.562,720.101,1085.168z"/>
				<path style="fill:#E37970;" d="M784.007,1071.456h-8.247c0.162,1.259,0.249,2.542,0.249,3.838v11.948
					c0,15.474-11.611,28.368-26.549,30.386c1.345,0.199,2.727,0.298,4.123,0.298c16.87,0,30.674-13.816,30.674-30.685v-11.948
					C784.258,1073.998,784.169,1072.715,784.007,1071.456z"/>
				
					<rect x="746.059" y="1115.247" transform="matrix(-1 -1.224647e-16 1.224647e-16 -1 1517.1624 2234.2429)" style="fill:#C45446;" width="25.044" height="3.75"/>
			</g>
			<g>
				<path style="fill:#C45446;" d="M554.443,1098.524c4.545,5.398,19.026,8.962,19.026,8.962l-0.003-0.006
					c5.634,6.392,13.865,10.446,23.004,10.446c16.875,0,30.681-13.807,30.681-30.681v-11.945c0-1.299-0.092-2.577-0.25-3.835
					h-60.862c-0.158,1.258-0.25,2.536-0.25,3.835v5.875c-4.058-0.851-9.657-1.544-12.535,0.232
					C548.424,1084.391,549.897,1093.127,554.443,1098.524z M558.012,1085.173c2.433-0.442,5.752,1.241,7.853,4.118
					c0.238,3.563,1.088,6.965,2.449,10.098c-3.405-0.829-10.311-2.967-11.847-6.937
					C554.522,1087.426,555.836,1085.567,558.012,1085.173z"/>
				<path style="fill:#E37970;" d="M621.918,1071.461h-8.247c0.162,1.259,0.249,2.542,0.249,3.838v11.948
					c0,15.474-11.611,28.369-26.549,30.386c1.345,0.199,2.727,0.298,4.123,0.298c16.87,0,30.674-13.816,30.674-30.685v-11.948
					C622.168,1074.003,622.08,1072.72,621.918,1071.461z"/>
				
					<rect x="583.969" y="1115.251" transform="matrix(-1 -1.224647e-16 1.224647e-16 -1 1192.983 2234.2524)" style="fill:#C45446;" width="25.044" height="3.75"/>
			</g>
		</g>
		
			<rect x="834.569" y="900.526" transform="matrix(-1 -1.224647e-16 1.224647e-16 -1 1676.2429 1832.5)" style="fill:#365DA4;" width="7.105" height="31.447"/>
		
			<rect x="821.279" y="900.526" transform="matrix(-1 -1.224647e-16 1.224647e-16 -1 1649.6639 1832.5)" style="fill:#365DA4;" width="7.105" height="31.447"/>
		
			<rect x="808.646" y="900.526" transform="matrix(-1 -1.224647e-16 1.224647e-16 -1 1624.3971 1832.5)" style="fill:#365DA4;" width="7.105" height="31.447"/>
	</g>
	<polygon style="fill:#EE9849;" points="1705.531,1244.96 1290.548,1244.96 460.278,1668.929 460.278,1713.765 1705.531,1322.105 	
		"/>
	<polygon style="fill:#EE9849;" points="460.278,1713.765 1705.531,1387.58 1705.531,1457.895 	"/>
	<polygon style="fill:#EE9849;" points="460.278,1668.929 1076.39,1244.96 835.437,1244.96 	"/>
	<path style="fill:#283250;" d="M2658.192,1715.638H198.736c-1.202,0-2.185-0.983-2.185-2.185l0,0c0-1.202,0.983-2.186,2.185-2.186
		h2459.456c1.202,0,2.185,0.984,2.185,2.186l0,0C2660.377,1714.655,2659.394,1715.638,2658.192,1715.638z"/>
</g>
</svg>
